<?xml version="1.0" standalone="no"?>
<!DOCTYPE svg PUBLIC "-//W3C//DTD SVG 20010904//EN"
 "http://www.w3.org/TR/2001/REC-SVG-20010904/DTD/svg10.dtd">
<svg version="1.0" xmlns="http://www.w3.org/2000/svg"
 width="420.000000pt" height="76.800000pt" viewBox="0 0 420.000000 76.800000"
 preserveAspectRatio="xMidYMid meet">
<metadata>
Created by potrace 1.13, written by Peter Selinger 2001-2015
</metadata>
<g transform="translate(0.000000,76.800000) scale(0.080000,-0.080000)"
fill="#000000" stroke="none">
<path d="M4440 590 c0 -16 5 -21 23 -18 12 2 22 10 22 18 0 8 -10 16 -22 18
-18 3 -23 -2 -23 -18z"/>
<path d="M378 460 c-2 -104 -6 -133 -20 -146 -22 -23 -66 -11 -78 21 -5 14
-16 25 -25 25 -23 0 -18 -38 10 -65 33 -34 87 -34 120 0 24 23 25 29 25 160 0
110 -3 135 -14 135 -12 0 -15 -26 -18 -130z"/>
<path d="M1460 430 l0 -160 80 0 c64 0 80 3 80 15 0 12 -14 15 -65 15 l-65 0
0 60 0 60 60 0 c33 0 60 4 60 10 0 6 -27 10 -60 10 l-60 0 0 60 0 60 65 0 c51
0 65 3 65 15 0 12 -16 15 -80 15 l-80 0 0 -160z"/>
<path d="M1680 430 l0 -160 85 0 c69 0 85 3 85 15 0 12 -14 15 -65 15 l-65 0
0 60 0 60 60 0 c33 0 60 4 60 10 0 6 -27 10 -60 10 l-60 0 0 60 0 60 65 0 c51
0 65 3 65 15 0 12 -16 15 -85 15 l-85 0 0 -160z"/>
<path d="M2020 431 c0 -154 1 -161 20 -161 18 0 20 7 20 65 l0 65 45 0 c51 0
99 20 109 45 3 9 6 33 6 54 0 59 -31 81 -124 88 l-76 6 0 -162z m119 119 c39
-11 51 -24 51 -57 0 -38 -34 -63 -85 -63 l-45 0 0 65 c0 61 1 65 23 65 12 0
38 -4 56 -10z"/>
<path d="M533 510 c-36 -15 -63 -68 -63 -123 0 -42 5 -54 34 -83 49 -49 112
-45 158 10 17 21 17 21 18 -11 0 -23 5 -33 15 -33 13 0 15 21 15 125 0 104 -2
125 -15 125 -10 0 -15 -10 -15 -32 l0 -32 -28 28 c-32 29 -84 41 -119 26z m86
-31 c64 -23 79 -116 24 -159 -34 -27 -76 -25 -110 4 -52 45 -32 147 31 159 11
2 21 5 22 6 1 0 15 -4 33 -10z"/>
<path d="M762 512 c2 -5 23 -61 48 -125 38 -99 48 -117 66 -117 18 0 29 19 69
121 26 66 45 123 41 126 -15 16 -34 -14 -66 -101 -19 -53 -38 -96 -42 -96 -3
0 -23 45 -44 100 -30 77 -43 100 -57 100 -10 0 -17 -4 -15 -8z"/>
<path d="M1093 510 c-36 -15 -63 -68 -63 -123 0 -42 5 -54 34 -83 49 -49 112
-45 158 10 17 21 17 21 18 -11 0 -23 5 -33 15 -33 13 0 15 21 15 125 0 104 -2
125 -15 125 -10 0 -15 -10 -15 -32 l0 -32 -28 28 c-32 29 -84 41 -119 26z m86
-31 c64 -23 79 -116 24 -159 -34 -27 -76 -25 -110 4 -52 45 -32 147 31 159 11
2 21 5 22 6 1 0 15 -4 33 -10z"/>
<path d="M2280 395 c0 -99 3 -125 14 -125 10 0 15 22 18 84 5 94 14 113 64
122 25 5 34 11 34 26 0 17 -5 19 -27 14 -16 -4 -35 -16 -45 -26 -22 -26 -28
-25 -28 5 0 16 -6 25 -15 25 -13 0 -15 -21 -15 -125z"/>
<path d="M2504 504 c-83 -41 -86 -177 -4 -219 86 -45 180 13 180 111 0 93 -92
150 -176 108z m95 -29 c16 -8 34 -28 40 -45 31 -92 -60 -167 -133 -109 -21 17
-26 29 -26 68 0 49 11 71 45 89 27 15 41 15 74 -3z"/>
<path d="M2793 510 c-36 -15 -63 -68 -63 -123 0 -42 5 -54 34 -83 49 -49 112
-45 158 10 17 21 17 20 18 -27 0 -41 -5 -53 -29 -78 -41 -41 -95 -36 -129 13
-14 19 -42 25 -42 8 0 -5 13 -24 29 -42 27 -30 35 -33 86 -33 51 0 59 3 86 33
l29 32 0 150 c0 127 -2 150 -15 150 -10 0 -15 -10 -15 -32 l0 -32 -28 28 c-32
29 -84 41 -119 26z m86 -31 c64 -23 79 -116 24 -159 -34 -27 -76 -25 -110 4
-52 45 -32 147 31 159 11 2 21 5 22 6 1 0 15 -4 33 -10z"/>
<path d="M3050 395 c0 -104 2 -125 15 -125 12 0 15 16 15 84 0 79 2 86 26 105
15 12 35 21 45 21 12 0 19 7 19 20 0 27 -22 25 -59 -6 l-31 -26 0 26 c0 16 -6
26 -15 26 -13 0 -15 -21 -15 -125z"/>
<path d="M3271 508 c-57 -31 -80 -108 -52 -176 26 -63 107 -81 160 -36 l31 26
0 -26 c0 -19 5 -26 20 -26 19 0 20 7 20 126 0 114 -2 125 -17 122 -11 -2 -19
-14 -21 -30 l-3 -28 -22 26 c-26 29 -82 40 -116 22z m117 -50 c29 -28 31 -99
2 -128 -42 -42 -116 -33 -139 16 -45 100 58 185 137 112z"/>
<path d="M3520 395 c0 -104 2 -125 15 -125 12 0 15 14 15 63 0 34 5 78 10 97
7 23 7 36 0 38 -5 2 -10 15 -10 28 0 15 -6 24 -15 24 -13 0 -15 -21 -15 -125z"/>
<path d="M3601 507 c-30 -15 -43 -44 -15 -32 45 19 63 17 88 -8 24 -24 26 -33
26 -112 0 -69 3 -85 15 -85 12 0 15 14 15 69 0 84 13 125 46 140 37 16 52 14
79 -14 23 -22 25 -32 25 -110 0 -69 3 -85 15 -85 12 0 15 17 15 96 0 92 -1 97
-29 125 -40 39 -82 39 -122 0 -27 -27 -30 -28 -41 -12 -28 39 -75 50 -117 28z"/>
<path d="M3980 396 c0 -119 1 -126 20 -126 19 0 20 7 20 89 0 85 1 91 26 110
34 26 54 26 88 0 25 -19 26 -25 26 -110 0 -82 1 -89 20 -89 19 0 20 7 20 89 0
85 1 91 26 110 35 27 59 26 89 -4 23 -22 25 -32 25 -110 0 -80 1 -85 21 -85
21 0 22 3 16 94 -6 99 -16 128 -54 145 -40 18 -73 13 -103 -17 l-28 -29 -20
26 c-16 22 -27 26 -66 26 -38 0 -52 -5 -66 -23 l-19 -22 -3 22 c-2 13 -11 24
-20 26 -16 3 -18 -8 -18 -122z"/>
<path d="M4450 395 c0 -104 2 -125 15 -125 13 0 15 21 15 125 0 104 -2 125
-15 125 -13 0 -15 -21 -15 -125z"/>
<path d="M4550 396 c0 -119 1 -126 20 -126 19 0 20 7 20 89 0 85 1 91 26 110
33 26 65 27 95 2 21 -17 24 -29 27 -110 3 -70 7 -91 18 -91 11 0 14 20 14 96
0 92 -1 97 -29 125 -41 41 -108 36 -135 -10 -8 -14 -11 -12 -16 9 -3 14 -14
26 -23 28 -15 3 -17 -9 -17 -122z"/>
<path d="M4888 504 c-74 -39 -77 -169 -6 -218 12 -9 40 -16 61 -16 31 0 45 7
68 31 l29 31 0 -40 c0 -54 -17 -88 -50 -102 -35 -14 -75 -4 -99 26 -10 13 -26
24 -35 24 -15 0 -15 -3 -1 -30 35 -68 135 -79 188 -20 27 30 27 31 27 180 0
127 -2 150 -15 150 -10 0 -15 -10 -15 -32 -1 -33 -1 -33 -18 -12 -38 45 -85
55 -134 28z m97 -29 c61 -25 73 -98 26 -146 -35 -35 -77 -38 -115 -8 -21 16
-26 29 -26 64 0 59 8 75 44 91 38 16 31 17 71 -1z"/>
</g>
</svg>
